<svg xmlns="http://www.w3.org/2000/svg" viewBox="0 0 87.699 67.91"><path d="M83.953 65.517h-.824v2.253h-.562v-2.253h-.828v-.488h2.214v.488zm3.746 2.253h-.56v-2.18h-.011l-.795 2.18h-.537l-.77-2.18h-.016v2.18h-.56v-2.74h.973l.637 1.787h.016l.664-1.787h.959v2.74zM29.007 57.712l10.457-17.56c.273 1.079.822 3.227.905 3.557-.537.925-8.624 14.915-8.624 14.915s11.931-9.859 12.479-10.31c.201.239 8.841 10.721 8.841 10.721s-4.063-13.569-4.338-14.494c.208-.33 1.564-2.496 2.422-3.873l3.699 17.077-7.391 10.165h31.767L64.041 0l-21.13.013L0 67.91h33.862l-4.855-10.198zm10.832-18.187l6.665-11.19h1.973l2.424 11.19H39.839z" fill="#e3d4ad"/><path d="M46.073 2.672h15.734l13.935 62.561H53.104l5.058-6.844-7.261-32.474-6.002-.005-19.367 31.861 3.613 7.434H6.715l-2.201 1.364h27.049l-4.28-8.825 18.368-30.633h4.001l6.936 30.939-6.231 8.523h27.141L62.978 1.3l-17.813-.014z"/><path d="M22.67 53.812l2.345-1.481-4.171-9.926 13.287-8.324-4.566-8.189 12.852-6.202-4.149-7.308 9.895-4.397-3.614-5.313-.839-1.227L2.445 66.546z"/><path d="M41.848 43.913l-5.067 8.757s6.681-5.521 7.629-6.302l5.374 6.514-2.558-8.545 2.147-3.427h-8.29c0 .001.623 2.456.765 3.003z" fill="#a71930"/><path fill="#a71930" d="M25.532 57.771L44.899 25.91l6.002.005 7.261 32.474-5.058 6.844h22.638L61.807 2.672H46.073l3.878 5.954-9.775 4.397 4.209 7.29-12.843 6.148 4.298 7.968-13.292 8.378 4.094 10.043L6.715 65.205h22.43z"/></svg>