<?xml version="1.0" encoding="utf-8"?>
<!-- Generator: Adobe Illustrator 23.0.0, SVG Export Plug-In . SVG Version: 6.00 Build 0)  -->
<svg version="1.1" xmlns="http://www.w3.org/2000/svg" xmlns:xlink="http://www.w3.org/1999/xlink" x="0px" y="0px"
	 viewBox="0 0 201.183 207.692" style="enable-background:new 0 0 201.183 207.692;" xml:space="preserve">
<g id="Layer_1">
	<g>
		<g>
			<g>
				<path style="fill:#1B75BC;" d="M194.444,121.736h-27.207h-0.008c-4.299,11.731-22.501,20.87-40.482,24.593v-0.002
					c-2.069,0.428-4.134,0.786-6.176,1.063c-0.022,0.004-0.045,0.006-0.068,0.007c-0.281,0.041-0.563,0.076-0.846,0.108
					c-0.065,0.011-0.126,0.02-0.19,0.028c-0.229,0.027-0.457,0.052-0.685,0.077c-0.001,0-0.002,0-0.003,0
					c-0.069,0.008-0.137,0.015-0.206,0.023c-0.034,0.004-0.069,0.008-0.103,0.012c-0.689,0.08-1.361,0.133-2.041,0.183l-0.674,0.05
					c-0.28,0.023-0.54,0.036-0.811,0.061c-0.063,0.002-0.101,0.004-0.101,0.004c-2.722,0.199-5.442,0.314-8.08,0.19
					c-3.261-0.153-6.349-0.497-9.39-0.893v-0.002c-0.185-0.027-0.361-0.05-0.542-0.072c-0.285-0.041-0.648-0.091-0.985-0.136
					c-0.247-0.034-0.493-0.07-0.739-0.102c-0.061-0.007-0.111-0.014-0.151-0.02c-0.423-0.051-0.847-0.106-1.254-0.17
					c-0.089-0.015-0.178-0.031-0.266-0.047c-0.311-0.053-0.622-0.105-0.933-0.162c-0.28-0.047-0.556-0.102-0.834-0.152
					c-0.093-0.018-0.188-0.038-0.283-0.056c-2.247-0.431-4.433-0.933-6.559-1.501v0.011c-23.09-6.158-38.526-20.198-38.528-35.896
					c0-0.016-0.003-0.032-0.003-0.049c0.105-18.993,18.508-34.511,47.14-40.047V45.56v0c-28.485,4.517-45.335,18.461-55.98,30.913
					c-0.212,0.228-0.428,0.477-0.651,0.765c-0.015,0.019-0.03,0.038-0.045,0.057c-0.957,1.142-1.862,2.269-2.719,3.373
					c-5.158,6.181-10.259,11.178-10.823,11.726c-6.472,6.211-14.584,13.362-19.01,16.542c11.155,7.445,22.676,18.939,37.202,34.479
					c9.215,9.858,24.972,23.259,50.192,27.241c0.029,0.002,0.056,0.007,0.08,0.012c0.359,0.058,0.719,0.115,1.082,0.17
					c0.222,0.034,0.447,0.067,0.671,0.099c0.192,0.028,0.384,0.057,0.577,0.085c0.624,0.093,1.277,0.165,1.923,0.239l0.717,0.077
					c0.251,0.032,0.719,0.092,0.719,0.092c2.995,0.344,6.091,0.638,9.39,0.798c2.708,0.156,8.045,0.047,8.08,0.047
					c0.269-0.01,0.531-0.01,0.8-0.016l1.033-0.027c0.538-0.012,1.073-0.019,1.629-0.049c0.16-0.008,0.317-0.023,0.477-0.032
					c37.819-2.116,68.662-22.812,75.662-50.411"/>
				<path style="fill:#1B75BC;" d="M118.793,44.827c0,0-0.001,0-0.001,0l-0.003,22.519h0c39.832,2.764,50.227,23.119,52.896,32.544
					h23.308h0.002C193.515,79.639,172.271,49.304,118.793,44.827z"/>
			</g>
			<polygon style="fill:#0E649E;" points="93.436,68.84 93.436,45.56 82.137,59.987 			"/>
			<polygon style="fill:#1C68AD;" points="194.444,121.736 167.237,121.736 174.28,134.322 			"/>
			<path style="fill:#1B75BC;" d="M167.237,121.736h-0.008c-4.299,11.731-22.501,20.87-40.482,24.593v-0.002
				c-2.069,0.428-4.134,0.786-6.176,1.063c-0.022,0.004-0.045,0.006-0.068,0.007c-0.281,0.041-0.563,0.076-0.846,0.108
				c-0.065,0.011-0.126,0.02-0.19,0.028c-0.229,0.027-0.457,0.052-0.685,0.077c-0.001,0-0.002,0-0.003,0
				c-0.069,0.008-0.137,0.015-0.206,0.023c-0.034,0.004-0.069,0.008-0.103,0.012c-0.689,0.08-1.361,0.133-2.041,0.183l-0.674,0.05
				c-0.28,0.023-0.54,0.036-0.811,0.061c-0.063,0.002-0.101,0.004-0.101,0.004c-2.722,0.199-5.442,0.314-8.08,0.19
				c-3.261-0.153-6.349-0.497-9.39-0.893v-0.002c-0.185-0.027-0.361-0.05-0.542-0.072c-0.285-0.041-0.648-0.091-0.985-0.136
				c-0.247-0.034-0.493-0.07-0.739-0.102c-0.061-0.007-0.111-0.014-0.151-0.02c-0.423-0.051-0.847-0.106-1.254-0.17
				c-0.089-0.015-0.178-0.031-0.266-0.047c-0.311-0.053-0.622-0.105-0.933-0.162c-0.28-0.047-0.556-0.102-0.834-0.152
				c-0.093-0.018-0.188-0.038-0.283-0.056c-2.247-0.431-4.433-0.933-6.559-1.501v0.011c-23.09-6.158-38.526-20.198-38.528-35.896
				h-16.32c0,0,16.991,35.132,40.479,43.503c23.488,8.37,36.61,7.9,39.052,7.9c2.442,0,43.655,1.969,64.769-26.016L167.237,121.736z
				"/>
			<path style="fill:#1B75BC;" d="M179.643,88.252l15.35,11.638h0.002c-1.479-20.251-22.723-50.587-76.201-55.063l11.239,12.719
				C169.072,63.63,179.643,88.252,179.643,88.252z"/>
			<path style="fill:#005584;" d="M130.032,57.547l-11.243,9.799c39.832,2.764,50.227,23.119,52.896,32.544l7.958-11.638
				C179.643,88.252,169.072,63.63,130.032,57.547z"/>
			<path style="fill:#005584;" d="M45.971,82.475c-14.118,16.991-15.992,26.461-15.992,26.461h16.32
				c0-0.016-0.003-0.032-0.003-0.049c0.105-18.993,18.508-34.511,47.14-40.047l-11.299-8.853
				C82.137,59.987,60.089,65.483,45.971,82.475z"/>
			<path style="fill:#1B75BC;" d="M45.971,82.475c14.118-16.991,36.166-22.488,36.166-22.488L93.436,45.56v0
				c-28.485,4.517-45.335,18.461-55.98,30.913c-0.212,0.228-0.428,0.477-0.651,0.765c-0.015,0.019-0.03,0.038-0.045,0.057
				c-0.957,1.142-1.862,2.269-2.719,3.373c-5.158,6.181-10.259,11.178-10.823,11.726c-6.472,6.211-14.584,13.362-19.01,16.542
				h25.771C29.979,108.936,31.853,99.466,45.971,82.475z"/>
			<polygon style="fill:#0E649E;" points="118.789,67.346 118.789,67.346 130.032,57.547 118.793,44.828 118.792,44.828 			"/>
			<polygon style="fill:#004C84;" points="171.685,99.89 194.993,99.89 179.643,88.252 			"/>
			<path style="fill:#004C84;" d="M174.28,134.322c-18.681,24.76-55.725,26.048-65.712,26.016
				c-1.967-0.021-9.619-0.265-19.591-2.664c-0.015-0.004-0.031-0.008-0.047-0.012c-0.566-0.136-1.145-0.286-1.725-0.437
				c-3.062-0.805-6.318-1.891-9.939-3.155c-10.55-3.987-22.04-10.51-31.663-21.179c-9.757-11.641-15.622-23.955-15.622-23.955H4.209
				c11.155,7.445,22.676,18.939,37.202,34.479c9.215,9.858,24.972,23.259,50.192,27.241c0.029,0.002,0.056,0.007,0.08,0.012
				c0.359,0.058,0.719,0.115,1.082,0.17c0.222,0.034,0.447,0.067,0.671,0.099c0.192,0.028,0.384,0.057,0.577,0.085
				c0.624,0.093,1.277,0.165,1.923,0.239l0.717,0.077c0.251,0.032,0.719,0.092,0.719,0.092c2.995,0.344,6.091,0.638,9.39,0.798
				c2.708,0.156,8.045,0.047,8.08,0.047c0.269-0.01,0.531-0.01,0.8-0.016l1.033-0.027c0.538-0.012,1.073-0.019,1.629-0.049
				c0.16-0.008,0.317-0.023,0.477-0.032c37.819-2.116,68.662-22.812,75.662-50.411L174.28,134.322z"/>
		</g>
		<g>
			<g>
				<path style="fill:#FFF6DC;" d="M106.108,6.473c-0.005,0-0.011,0-0.016,0c-23.071,0-60.232,3.401-81.148,8.01l-3.349,0.738
					l0.001,0.009l0.271,3.409c0.097,1.213,0.183,2.427,0.183,3.926c0,7.687-1.3,17.164-3.864,28.165l-1.402,6.015l6.044-1.269
					c7.72-1.621,18.79-8.587,24.962-22.915c0.002-0.003,0.003-0.006,0.005-0.01c9.65-2.278,25.938-4.034,37.209-4.439
					c6.204-0.223,8.432-0.194,8.432-0.194v0.007v118.765c0.006,0.001,0.011,0.002,0.017,0.003l0.001-0.001l-0.001,0.002
					c0.083,0.014,0.166,0.029,0.249,0.043c0.407,0.065,0.83,0.12,1.254,0.17c0.039,0.005,0.09,0.012,0.151,0.02
					c0.246,0.032,0.491,0.068,0.739,0.102c0.337,0.045,0.7,0.095,0.985,0.136c0.181,0.022,0.357,0.045,0.542,0.072v0.002
					c3.042,0.396,6.129,0.74,9.39,0.893c2.638,0.124,5.357,0.009,8.08-0.19c0,0,0.038-0.002,0.101-0.004
					c0.271-0.025,0.531-0.038,0.811-0.061l0.674-0.05c0.68-0.05,1.352-0.103,2.041-0.183c0.034-0.004,0.069-0.008,0.103-0.012
					l-0.001-0.001l0.001,0.001c0.069-0.008,0.137-0.015,0.206-0.023c0.001,0,0.002,0,0.003,0V27.926v-0.007
					c0,0,2.229-0.029,8.432,0.194c11.27,0.405,27.559,2.161,37.209,4.439c0.001,0.004,0.003,0.007,0.005,0.01
					c6.172,14.328,17.242,21.294,24.962,22.915l6.044,1.269l-1.402-6.015c-2.564-11.001-3.864-20.478-3.864-28.165
					c0-1.498,0.087-2.712,0.183-3.926l0.271-3.409l0.001-0.009l-3.349-0.738c-20.916-4.609-58.077-8.01-81.148-8.01
					C106.12,6.473,106.114,6.473,106.108,6.473"/>
				<polygon style="fill:#FFF6DC;" points="106.108,187.855 106.108,187.855 106.109,187.855 106.108,187.854 				"/>
				<path style="fill:#FFF6DC;" d="M118.783,181.137l-0.001-0.001v-8.98l0.01-0.011c-0.004,0-0.008,0.001-0.011,0.001
					c-0.16,0.009-0.317,0.024-0.477,0.032c-0.556,0.029-1.09,0.036-1.629,0.049l-1.033,0.027c-0.269,0.006-0.531,0.006-0.8,0.016
					c-0.034,0-5.371,0.11-8.08-0.047c-0.224-0.011-0.431-0.033-0.654-0.045v0.005c-0.001,0-0.002,0-0.003,0
					c-3.049-0.166-5.943-0.432-8.734-0.753c0,0-0.468-0.059-0.719-0.092l-0.717-0.077c-0.646-0.074-1.299-0.146-1.923-0.239
					c-0.193-0.028-0.384-0.057-0.577-0.085v0.128v10.071l-0.001,0.001l-13.794,21.966l-0.006,0.01h26.468h0.005h0.001h0.001h0.005
					h26.468l-0.006-0.01L118.783,181.137z"/>
			</g>
			<g>
				<g>
					<path style="fill:#D1C4A5;" d="M97.955,17.877c-7.253-1.073-25.674,0.199-32.948,1.116c-6.603,0.832-16.266,1.995-22.704,3.725
						c-4.056,1.09-6.791,3.53-6.791,3.53l12.279,6.314c0.002-0.003,0.003-0.006,0.005-0.01c9.65-2.278,25.938-4.034,37.209-4.439
						c6.204-0.223,8.432-0.194,8.432-0.194v0.007l12.672-6.569C105.968,21.256,102.066,18.485,97.955,17.877z"/>
					<path style="fill:#E1D6BA;" d="M106.108,21.356l-12.672,6.569v118.765c0.006,0.001,0.011,0.002,0.017,0.003l12.655-12.655
						V21.356z"/>
					<path style="fill:#FFF6DC;" d="M35.512,26.248c0,0,2.735-2.44,6.791-3.53c6.438-1.731,16.101-2.894,22.704-3.725
						c7.274-0.916,25.695-2.189,32.948-1.116c4.11,0.608,8.013,3.379,8.153,3.48V6.473c-0.005,0-0.011,0-0.016,0
						c-23.071,0-60.232,3.401-81.148,8.01l-3.349,0.738l0.001,0.009c2.275,1.594,5.789,4.077,7.185,5.179
						C30.618,21.86,35.512,26.248,35.512,26.248z"/>
					<path style="fill:#F2E7CD;" d="M16.785,56.746l6.044-1.269c7.72-1.621,18.79-8.587,24.962-22.915l-12.279-6.314
						C31.45,45.201,16.785,56.746,16.785,56.746z"/>
					<path style="fill:#E1D6BA;" d="M35.512,26.248c0,0-4.894-4.388-6.731-5.839c-1.396-1.102-4.909-3.585-7.185-5.179l0.271,3.409
						c0.097,1.213,0.183,2.427,0.183,3.926c0,7.687-1.3,17.164-3.864,28.165l-1.402,6.015C16.785,56.746,31.45,45.201,35.512,26.248
						z"/>
				</g>
				<path style="fill:#D1C4A5;" d="M114.262,17.877c7.253-1.073,25.674,0.199,32.948,1.116c6.603,0.832,16.266,1.995,22.704,3.725
					c4.056,1.09,6.791,3.53,6.791,3.53l-12.279,6.314c-0.002-0.003-0.003-0.006-0.005-0.01c-9.65-2.278-25.938-4.034-37.209-4.439
					c-6.204-0.223-8.432-0.194-8.432-0.194v0.007l-12.672-6.569C106.249,21.256,110.152,18.485,114.262,17.877z"/>
				<path style="fill:#F2E7CD;" d="M118.781,147.61V27.926l-12.672-6.569V134.04l12.463,13.594c0.069-0.008,0.137-0.015,0.206-0.023
					C118.779,147.611,118.78,147.61,118.781,147.61z"/>
				<path style="fill:#FFF6DC;" d="M176.705,26.248c0,0-2.735-2.44-6.791-3.53c-6.438-1.731-16.101-2.894-22.704-3.725
					c-7.274-0.916-25.695-2.189-32.948-1.116c-4.11,0.608-8.013,3.379-8.153,3.48V6.473c0.005,0,0.011,0,0.016,0
					c23.071,0,60.232,3.401,81.148,8.01l3.349,0.738l-0.001,0.009c-2.275,1.594-5.789,4.077-7.185,5.179
					C181.599,21.86,176.705,26.248,176.705,26.248z"/>
				<path style="fill:#E1D6BA;" d="M195.433,56.746l-6.044-1.269c-7.72-1.621-18.79-8.587-24.962-22.915l12.279-6.314
					C180.767,45.201,195.433,56.746,195.433,56.746z"/>
				<path style="fill:#F2E7CD;" d="M176.705,26.248c0,0,4.894-4.388,6.731-5.839c1.396-1.102,4.909-3.585,7.185-5.179l-0.271,3.409
					c-0.097,1.213-0.183,2.427-0.183,3.926c0,7.687,1.3,17.164,3.864,28.165l1.402,6.015
					C195.433,56.746,180.767,45.201,176.705,26.248z"/>
				<g>
					<path style="fill:#D1C4A5;" d="M94.957,146.908c0.039,0.005,0.09,0.012,0.151,0.02c0.246,0.032,0.491,0.068,0.739,0.102
						c0.337,0.045,0.7,0.095,0.985,0.136c0.181,0.022,0.357,0.045,0.542,0.072v0.002c3.042,0.396,6.129,0.74,9.39,0.893
						c2.638,0.124,5.357,0.009,8.08-0.19c0,0,0.038-0.002,0.101-0.004c0.271-0.025,0.531-0.038,0.811-0.061l0.674-0.05
						c0.68-0.05,1.352-0.103,2.041-0.183c0.034-0.004,0.069-0.008,0.103-0.012l-12.463-13.594l-0.001,0.02v-0.02l-12.655,12.655
						c0.083,0.014,0.166,0.029,0.249,0.043C94.11,146.803,94.533,146.858,94.957,146.908z"/>
				</g>
				<g>
					<polygon style="fill:#003263;" points="106.108,187.855 106.109,187.855 106.108,187.854 					"/>
					<line style="fill:#003263;" x1="106.108" y1="187.854" x2="106.109" y2="187.855"/>
					<path style="fill:#003263;" d="M106.108,172.183"/>
					<polygon style="fill:#003263;" points="106.108,187.855 106.109,187.855 106.108,187.855 					"/>
				</g>
				<g>
					<polygon style="fill:none;" points="106.106,185.389 106.108,185.391 106.106,185.389 					"/>
					<polygon style="fill:#E1D6BA;" points="106.108,185.393 106.108,185.392 106.108,185.391 106.106,185.389 106.104,185.391 
						106.104,185.386 93.436,171.065 93.436,181.136 93.436,181.137 106.104,187.848 					"/>
					<polygon style="fill:#F2E7CD;" points="106.104,187.855 106.103,187.855 106.104,187.854 106.104,187.855 106.104,187.855 
						106.104,187.848 93.436,181.137 79.642,203.103 106.104,187.859 					"/>
					<polygon style="fill:#003263;" points="106.103,187.855 106.104,187.855 106.104,187.854 					"/>
					<polygon style="fill:#003263;" points="106.104,185.391 106.106,185.389 106.104,185.386 					"/>
				</g>
				<polygon style="fill:none;" points="106.112,185.389 106.11,185.391 106.112,185.389 				"/>
				<polygon style="fill:#E8DCC5;" points="106.11,185.393 106.11,185.392 106.11,185.391 106.112,185.389 106.114,185.391 
					106.114,185.386 118.782,172.151 118.782,181.136 118.783,181.137 106.114,187.848 				"/>
				<polygon style="fill:#F2E7CD;" points="106.114,187.855 106.115,187.855 106.114,187.854 106.114,187.855 106.114,187.855 
					106.114,187.848 118.783,181.137 132.576,203.103 106.114,187.859 				"/>
				<polygon style="fill:#003263;" points="106.115,187.855 106.114,187.855 106.114,187.854 				"/>
				<polygon style="fill:#D1C4A5;" points="132.576,203.103 106.114,187.859 106.114,187.855 106.114,187.855 106.112,187.856 
					106.11,187.859 106.109,187.859 106.108,187.859 106.106,187.856 106.104,187.855 106.104,187.855 106.104,187.859 
					79.642,203.103 79.636,203.113 106.104,203.113 106.108,203.113 106.109,203.113 106.11,203.113 106.114,203.113 
					132.582,203.113 				"/>
				<path style="fill:#FFF6DC;" d="M118.781,172.146c-0.16,0.009-0.317,0.024-0.477,0.032c-0.556,0.029-1.09,0.036-1.629,0.049
					l-1.033,0.027c-0.269,0.006-0.531,0.006-0.8,0.016c-0.034,0-5.371,0.11-8.08-0.047c-0.224-0.011-0.431-0.033-0.654-0.045v0.005
					c-0.001,0-0.002,0-0.003,0c-3.049-0.166-5.943-0.432-8.734-0.753c0,0-0.468-0.059-0.719-0.092l-0.717-0.077
					c-0.646-0.074-1.299-0.146-1.923-0.239c-0.193-0.028-0.384-0.057-0.577-0.085v0.128l12.667,14.321l0.002,0.002h0l0.002,0.002
					v-0.005l0.001-0.001v-0.005l0.001,0.001v0.005l0.002-0.002h0l0.002-0.002l12.678-13.236
					C118.788,172.145,118.785,172.146,118.781,172.146z"/>
				<polygon style="fill:#003263;" points="106.114,185.391 106.112,185.389 106.114,185.386 				"/>
			</g>
		</g>
	</g>
</g>
<g id="Layer_2">
</g>
<g id="Layer_3">
</g>
</svg>
